<?xml version="1.0" standalone="no"?>
<!DOCTYPE svg PUBLIC "-//W3C//DTD SVG 20010904//EN"
 "http://www.w3.org/TR/2001/REC-SVG-20010904/DTD/svg10.dtd">
<svg version="1.0" xmlns="http://www.w3.org/2000/svg"
 width="500.000000pt" height="500.000000pt" viewBox="0 0 500.000000 500.000000"
 preserveAspectRatio="xMidYMid meet">
<metadata>
Created by potrace 1.14, written by Peter Selinger 2001-2017
</metadata>
<g transform="translate(0.000000,500.000000) scale(0.100000,-0.100000)"
fill="#000000" stroke="none">
<path d="M0 2500 l0 -2500 2500 0 2500 0 0 2500 0 2500 -2500 0 -2500 0 0
-2500z m814 1763 c13 -43 530 -2364 577 -2592 29 -140 54 -250 56 -245 1 5 36
174 77 375 42 201 118 552 170 780 109 475 384 1655 392 1682 5 16 34 17 424
17 l418 0 5 -22 c3 -13 110 -460 236 -994 239 -1005 269 -1146 343 -1571 23
-139 46 -253 49 -253 4 0 12 28 19 62 6 35 50 229 96 432 46 202 179 805 295
1340 115 534 212 979 215 989 5 16 32 17 386 17 300 0 379 -3 376 -12 -3 -7
-211 -813 -464 -1790 l-458 -1778 -446 0 -445 0 -273 1168 c-237 1013 -307
1327 -350 1582 -5 30 -11 48 -15 40 -3 -8 -26 -118 -51 -245 -24 -126 -151
-687 -281 -1245 -130 -558 -251 -1078 -269 -1155 l-32 -140 -446 -3 -446 -2
-20 77 c-12 43 -217 841 -457 1773 -240 932 -438 1703 -441 1713 -5 16 17 17
375 17 353 0 380 -1 385 -17z"/>
</g>
</svg>
